<svg width="100" height="25" viewBox="0 0 100 25" fill="none" xmlns="http://www.w3.org/2000/svg">
<path d="M-0.00585938 12.8496C-0.00585938 6.22219 5.36672 0.849609 11.9941 0.849609H87.9941C94.6216 0.849609 99.9941 6.22219 99.9941 12.8496C99.9941 19.477 94.6216 24.8496 87.9941 24.8496H11.9941C5.36672 24.8496 -0.00585938 19.477 -0.00585938 12.8496Z" fill="#D60B13"/>
<rect width="3" height="10" rx="1" transform="matrix(-1 0 0 1 10.9941 7.84961)" fill="white"/>
<rect width="3" height="10" rx="1" transform="matrix(-1 0 0 1 16.9941 7.84961)" fill="white"/>
<rect width="3" height="10" rx="1" transform="matrix(-1 0 0 1 22.9941 7.84961)" fill="white"/>
<path d="M27.0921 8.04961H28.4081L31.3201 16.7156L34.2461 8.04961H35.5201L32.0901 17.8496H30.5221L27.0921 8.04961ZM39.6391 18.0176C38.6124 18.0176 37.8191 17.7329 37.2591 17.1636C36.6991 16.5849 36.4191 15.6796 36.4191 14.4476C36.4191 13.2716 36.6944 12.3803 37.2451 11.7736C37.7958 11.1669 38.6031 10.8636 39.6671 10.8636C40.1711 10.8636 40.6051 10.9476 40.9691 11.1156C41.3331 11.2743 41.6318 11.5029 41.8651 11.8016C42.1078 12.0909 42.2851 12.4363 42.3971 12.8376C42.5184 13.2389 42.5791 13.6776 42.5791 14.1536C42.5791 14.2563 42.5744 14.3636 42.5651 14.4756C42.5651 14.5783 42.5604 14.6856 42.5511 14.7976H37.6091C37.6558 15.6283 37.8471 16.2116 38.1831 16.5476C38.5284 16.8836 39.0231 17.0516 39.6671 17.0516C40.1524 17.0516 40.5538 16.9723 40.8711 16.8136C41.1884 16.6456 41.4544 16.3283 41.6691 15.8616L42.5651 16.3236C42.2944 16.9209 41.9071 17.3549 41.4031 17.6256C40.8991 17.8869 40.3111 18.0176 39.6391 18.0176ZM39.6111 11.8156C39.0231 11.8156 38.5611 11.9743 38.2251 12.2916C37.8891 12.5996 37.6884 13.1269 37.6231 13.8736H41.3891C41.3611 13.1363 41.1931 12.6089 40.8851 12.2916C40.5771 11.9743 40.1524 11.8156 39.6111 11.8156ZM44.5793 17.8496V11.0316H45.6153L45.7413 12.4736C45.984 11.9136 46.3293 11.5029 46.7773 11.2416C47.2347 10.9803 47.7573 10.8729 48.3453 10.9196V12.0676C47.496 11.9836 46.8613 12.1609 46.4413 12.5996C46.0213 13.0383 45.802 13.6963 45.7833 14.5736V17.8496H44.5793ZM51.6372 18.7596L51.9172 17.9756L49.1032 11.0316H50.3772L52.5472 16.7156L54.7172 11.0316H55.9632L52.6732 19.1516C52.4025 19.8143 52.0572 20.2669 51.6372 20.5096C51.2265 20.7523 50.7552 20.8736 50.2232 20.8736C50.0365 20.8736 49.8592 20.8596 49.6912 20.8316C49.5325 20.8129 49.3459 20.7663 49.1312 20.6916L49.3272 19.6836C49.4859 19.7303 49.6305 19.7676 49.7612 19.7956C49.8919 19.8236 50.0505 19.8376 50.2372 19.8376C50.3492 19.8376 50.4659 19.8283 50.5872 19.8096C50.7085 19.7909 50.8299 19.7443 50.9512 19.6696C51.0819 19.5949 51.2032 19.4829 51.3152 19.3336C51.4365 19.1936 51.5439 19.0023 51.6372 18.7596ZM67.6995 17.8496V13.4676H62.1415V17.8496H60.8955V8.04961H62.1415V12.3756H67.6995V8.04961H68.9455V17.8496H67.6995ZM71.5904 8.91761C71.5904 8.65628 71.6604 8.46028 71.8004 8.32961C71.9497 8.19894 72.155 8.13361 72.4164 8.13361C72.6777 8.13361 72.8784 8.19894 73.0184 8.32961C73.1677 8.46028 73.2424 8.65628 73.2424 8.91761C73.2424 9.17894 73.1677 9.37961 73.0184 9.51961C72.8784 9.65028 72.6777 9.71561 72.4164 9.71561C72.155 9.71561 71.9497 9.65028 71.8004 9.51961C71.6604 9.37961 71.5904 9.17894 71.5904 8.91761ZM71.8144 11.0316H73.0184V17.8496H71.8144V11.0316ZM80.4295 14.3076C80.4295 13.8596 80.3735 13.4816 80.2615 13.1736C80.1588 12.8563 80.0142 12.5996 79.8275 12.4036C79.6408 12.1983 79.4168 12.0489 79.1555 11.9556C78.9035 11.8623 78.6282 11.8156 78.3295 11.8156C77.6575 11.8156 77.1582 12.0163 76.8315 12.4176C76.5142 12.8189 76.3555 13.4536 76.3555 14.3216C76.3555 15.1989 76.5188 15.8429 76.8455 16.2536C77.1722 16.6549 77.6668 16.8556 78.3295 16.8556C78.6282 16.8556 78.9035 16.8089 79.1555 16.7156C79.4168 16.6223 79.6408 16.4729 79.8275 16.2676C80.0142 16.0623 80.1588 15.8009 80.2615 15.4836C80.3735 15.1569 80.4295 14.7649 80.4295 14.3076ZM81.6335 11.0316V17.6536C81.6335 18.2229 81.5495 18.7083 81.3815 19.1096C81.2135 19.5203 80.9755 19.8563 80.6675 20.1176C80.3688 20.3789 80.0095 20.5703 79.5895 20.6916C79.1695 20.8129 78.7075 20.8736 78.2035 20.8736C77.5315 20.8736 76.9435 20.7569 76.4395 20.5236C75.9448 20.2903 75.5528 19.8703 75.2635 19.2636L76.1315 18.6476C76.3648 19.1143 76.6495 19.4363 76.9855 19.6136C77.3215 19.8003 77.7275 19.8936 78.2035 19.8936C78.5302 19.8936 78.8288 19.8516 79.0995 19.7676C79.3702 19.6929 79.6035 19.5716 79.7995 19.4036C79.9955 19.2356 80.1495 19.0163 80.2615 18.7456C80.3735 18.4843 80.4295 18.1623 80.4295 17.7796V16.5476C80.2055 16.9863 79.8928 17.3129 79.4915 17.5276C79.0902 17.7329 78.6095 17.8356 78.0495 17.8356C77.1348 17.8356 76.4208 17.5416 75.9075 16.9536C75.4035 16.3656 75.1515 15.4929 75.1515 14.3356C75.1515 13.2063 75.3988 12.3476 75.8935 11.7596C76.3882 11.1623 77.1115 10.8636 78.0635 10.8636C78.6235 10.8636 79.1088 10.9709 79.5195 11.1856C79.9302 11.3909 80.2475 11.7083 80.4715 12.1376L80.5975 11.0316H81.6335ZM85.4455 8.04961V12.3476C85.6975 11.8156 86.0568 11.4376 86.5235 11.2136C86.9995 10.9803 87.5035 10.8636 88.0355 10.8636C88.8941 10.8636 89.5288 11.0923 89.9395 11.5496C90.3501 12.0069 90.5555 12.6883 90.5555 13.5936V17.8496H89.3515V13.9016C89.3515 13.1736 89.2021 12.6556 88.9035 12.3476C88.6141 12.0396 88.2035 11.8856 87.6715 11.8856C86.9995 11.8856 86.4628 12.1096 86.0615 12.5576C85.6695 12.9963 85.4641 13.6263 85.4455 14.4476V17.8496H84.2415V8.04961H85.4455Z" fill="white"/>
</svg>
