<svg width="92" height="25" viewBox="0 0 92 25" fill="none" xmlns="http://www.w3.org/2000/svg">
<path d="M1.4834 12.8496C1.4834 6.49834 6.63212 1.34961 12.9834 1.34961H79.9834C86.3347 1.34961 91.4834 6.49833 91.4834 12.8496C91.4834 19.2009 86.3347 24.3496 79.9834 24.3496H12.9834C6.63212 24.3496 1.4834 19.2009 1.4834 12.8496Z" fill="#F7F7F7"/>
<path d="M1.4834 12.8496C1.4834 6.49834 6.63212 1.34961 12.9834 1.34961H79.9834C86.3347 1.34961 91.4834 6.49833 91.4834 12.8496C91.4834 19.2009 86.3347 24.3496 79.9834 24.3496H12.9834C6.63212 24.3496 1.4834 19.2009 1.4834 12.8496Z" stroke="#E0E0E0"/>
<rect width="3" height="10" rx="1" transform="matrix(-1 0 0 1 11.9834 7.84961)" fill="#E9730D"/>
<rect width="3" height="10" rx="1" transform="matrix(-1 0 0 1 17.9834 7.84961)" fill="#E9730D"/>
<rect width="3" height="10" rx="1" transform="matrix(-1 0 0 1 23.9834 7.84961)" fill="#D0D0D0"/>
<path d="M34.1294 17.8496L30.6714 10.1916L30.7134 17.8496H29.5234V8.04961H30.8674L34.6474 16.4356L38.3994 8.04961H39.7294V17.8496H38.5254L38.5814 10.1916L35.1234 17.8496H34.1294ZM45.2905 18.0176C44.2638 18.0176 43.4705 17.7329 42.9105 17.1636C42.3505 16.5849 42.0705 15.6796 42.0705 14.4476C42.0705 13.2716 42.3458 12.3803 42.8965 11.7736C43.4471 11.1669 44.2545 10.8636 45.3185 10.8636C45.8225 10.8636 46.2565 10.9476 46.6205 11.1156C46.9845 11.2743 47.2831 11.5029 47.5165 11.8016C47.7591 12.0909 47.9365 12.4363 48.0485 12.8376C48.1698 13.2389 48.2305 13.6776 48.2305 14.1536C48.2305 14.2563 48.2258 14.3636 48.2165 14.4756C48.2165 14.5783 48.2118 14.6856 48.2025 14.7976H43.2605C43.3071 15.6283 43.4985 16.2116 43.8345 16.5476C44.1798 16.8836 44.6745 17.0516 45.3185 17.0516C45.8038 17.0516 46.2051 16.9723 46.5225 16.8136C46.8398 16.6456 47.1058 16.3283 47.3205 15.8616L48.2165 16.3236C47.9458 16.9209 47.5585 17.3549 47.0545 17.6256C46.5505 17.8869 45.9625 18.0176 45.2905 18.0176ZM45.2625 11.8156C44.6745 11.8156 44.2125 11.9743 43.8765 12.2916C43.5405 12.5996 43.3398 13.1269 43.2745 13.8736H47.0405C47.0125 13.1363 46.8445 12.6089 46.5365 12.2916C46.2285 11.9743 45.8038 11.8156 45.2625 11.8156ZM55.0187 14.4196C55.0187 13.9623 54.9627 13.5703 54.8507 13.2436C54.748 12.9169 54.6034 12.6509 54.4167 12.4456C54.23 12.2309 54.0107 12.0769 53.7587 11.9836C53.5067 11.8809 53.2314 11.8296 52.9327 11.8296C52.2514 11.8296 51.7474 12.0396 51.4207 12.4596C51.094 12.8796 50.9307 13.5423 50.9307 14.4476C50.9307 15.3529 51.094 16.0156 51.4207 16.4356C51.7567 16.8463 52.256 17.0516 52.9187 17.0516C53.2174 17.0516 53.4927 17.0049 53.7447 16.9116C54.006 16.8089 54.23 16.6503 54.4167 16.4356C54.6034 16.2209 54.748 15.9503 54.8507 15.6236C54.9627 15.2876 55.0187 14.8863 55.0187 14.4196ZM55.1167 17.8496L55.0467 16.6316C54.8227 17.0983 54.5007 17.4483 54.0807 17.6816C53.67 17.9056 53.1754 18.0176 52.5967 18.0176C51.6634 18.0176 50.9494 17.7143 50.4547 17.1076C49.9694 16.4916 49.7267 15.6003 49.7267 14.4336C49.7267 13.2669 49.9834 12.3803 50.4967 11.7736C51.0194 11.1669 51.7707 10.8636 52.7507 10.8636C53.7774 10.8636 54.5334 11.2463 55.0187 12.0116V8.04961H56.2227V17.8496H55.1167ZM58.6343 8.91761C58.6343 8.65628 58.7043 8.46028 58.8443 8.32961C58.9937 8.19894 59.199 8.13361 59.4603 8.13361C59.7217 8.13361 59.9223 8.19894 60.0623 8.32961C60.2117 8.46028 60.2863 8.65628 60.2863 8.91761C60.2863 9.17894 60.2117 9.37961 60.0623 9.51961C59.9223 9.65028 59.7217 9.71561 59.4603 9.71561C59.199 9.71561 58.9937 9.65028 58.8443 9.51961C58.7043 9.37961 58.6343 9.17894 58.6343 8.91761ZM58.8583 11.0316H60.0623V17.8496H58.8583V11.0316ZM67.8235 17.8496L67.7255 16.6456C67.4548 17.1403 67.0955 17.4949 66.6475 17.7096C66.2088 17.9149 65.7375 18.0176 65.2335 18.0176C64.3281 18.0176 63.6608 17.7703 63.2315 17.2756C62.8115 16.7809 62.6015 16.0809 62.6015 15.1756V11.0316H63.8055V15.0076C63.8055 16.3609 64.3748 17.0376 65.5135 17.0376C66.1761 17.0376 66.6941 16.8229 67.0675 16.3936C67.4408 15.9643 67.6368 15.3389 67.6555 14.5176V11.0316H68.8595V17.8496H67.8235ZM71.4631 17.8496V11.0316H72.4991L72.6251 12.2916C72.8771 11.7689 73.2178 11.4003 73.6471 11.1856C74.0858 10.9709 74.5291 10.8636 74.9771 10.8636C75.5931 10.8636 76.0691 11.0223 76.4051 11.3396C76.7505 11.6569 76.9745 12.0536 77.0771 12.5296C77.3105 11.9323 77.6651 11.5076 78.1411 11.2556C78.6171 10.9943 79.1305 10.8636 79.6811 10.8636C80.4651 10.8636 81.0391 11.0923 81.4031 11.5496C81.7765 11.9976 81.9631 12.6603 81.9631 13.5376V17.8496H80.7591V13.8456C80.7591 13.1363 80.6331 12.6369 80.3811 12.3476C80.1385 12.0489 79.7838 11.8996 79.3171 11.8996C78.7198 11.8996 78.2391 12.1049 77.8751 12.5156C77.5111 12.9169 77.3198 13.5143 77.3011 14.3076V17.8496H76.0971V13.9016C76.0971 13.1736 75.9665 12.6603 75.7051 12.3616C75.4531 12.0536 75.0845 11.8996 74.5991 11.8996C74.0205 11.8996 73.5585 12.1049 73.2131 12.5156C72.8678 12.9169 72.6858 13.5236 72.6671 14.3356V17.8496H71.4631Z" fill="#606060"/>
</svg>
