<svg width="31" height="24" viewBox="0 0 31 24" fill="none" xmlns="http://www.w3.org/2000/svg">
<path d="M0.5 12C0.5 5.64873 5.64873 0.5 12 0.5H19C25.3513 0.5 30.5 5.64873 30.5 12C30.5 18.3513 25.3513 23.5 19 23.5H12C5.64873 23.5 0.5 18.3513 0.5 12Z" fill="#F7F7F7"/>
<path d="M0.5 12C0.5 5.64873 5.64873 0.5 12 0.5H19C25.3513 0.5 30.5 5.64873 30.5 12C30.5 18.3513 25.3513 23.5 19 23.5H12C5.64873 23.5 0.5 18.3513 0.5 12Z" stroke="#E0E0E0"/>
<rect width="3" height="10" rx="1" transform="matrix(-1 0 0 1 11 7)" fill="#D60B13"/>
<rect width="3" height="10" rx="1" transform="matrix(-1 0 0 1 17 7)" fill="#D60B13"/>
<rect width="3" height="10" rx="1" transform="matrix(-1 0 0 1 23 7)" fill="#D60B13"/>
</svg>
