<svg width="69" height="25" viewBox="0 0 69 25" fill="none" xmlns="http://www.w3.org/2000/svg">
<path d="M1.48926 12.8496C1.48926 6.49834 6.63798 1.34961 12.9893 1.34961H56.9893C63.3405 1.34961 68.4893 6.49833 68.4893 12.8496C68.4893 19.2009 63.3405 24.3496 56.9893 24.3496H12.9893C6.63798 24.3496 1.48926 19.2009 1.48926 12.8496Z" fill="#F7F7F7"/>
<path d="M1.48926 12.8496C1.48926 6.49834 6.63798 1.34961 12.9893 1.34961H56.9893C63.3405 1.34961 68.4893 6.49833 68.4893 12.8496C68.4893 19.2009 63.3405 24.3496 56.9893 24.3496H12.9893C6.63798 24.3496 1.48926 19.2009 1.48926 12.8496Z" stroke="#E0E0E0"/>
<rect width="3" height="10" rx="1" transform="matrix(-1 0 0 1 11.9893 7.84961)" fill="#D60B13"/>
<rect width="3" height="10" rx="1" transform="matrix(-1 0 0 1 17.9893 7.84961)" fill="#D60B13"/>
<rect width="3" height="10" rx="1" transform="matrix(-1 0 0 1 23.9893 7.84961)" fill="#D60B13"/>
<path d="M36.3333 17.8496V13.4676H30.7753V17.8496H29.5293V8.04961H30.7753V12.3756H36.3333V8.04961H37.5793V17.8496H36.3333ZM40.2242 8.91761C40.2242 8.65628 40.2942 8.46028 40.4342 8.32961C40.5835 8.19894 40.7888 8.13361 41.0502 8.13361C41.3115 8.13361 41.5122 8.19894 41.6522 8.32961C41.8015 8.46028 41.8762 8.65628 41.8762 8.91761C41.8762 9.17894 41.8015 9.37961 41.6522 9.51961C41.5122 9.65028 41.3115 9.71561 41.0502 9.71561C40.7888 9.71561 40.5835 9.65028 40.4342 9.51961C40.2942 9.37961 40.2242 9.17894 40.2242 8.91761ZM40.4482 11.0316H41.6522V17.8496H40.4482V11.0316ZM49.0633 14.3076C49.0633 13.8596 49.0073 13.4816 48.8953 13.1736C48.7926 12.8563 48.648 12.5996 48.4613 12.4036C48.2746 12.1983 48.0506 12.0489 47.7893 11.9556C47.5373 11.8623 47.262 11.8156 46.9633 11.8156C46.2913 11.8156 45.792 12.0163 45.4653 12.4176C45.148 12.8189 44.9893 13.4536 44.9893 14.3216C44.9893 15.1989 45.1526 15.8429 45.4793 16.2536C45.806 16.6549 46.3006 16.8556 46.9633 16.8556C47.262 16.8556 47.5373 16.8089 47.7893 16.7156C48.0506 16.6223 48.2746 16.4729 48.4613 16.2676C48.648 16.0623 48.7926 15.8009 48.8953 15.4836C49.0073 15.1569 49.0633 14.7649 49.0633 14.3076ZM50.2673 11.0316V17.6536C50.2673 18.2229 50.1833 18.7083 50.0153 19.1096C49.8473 19.5203 49.6093 19.8563 49.3013 20.1176C49.0026 20.3789 48.6433 20.5703 48.2233 20.6916C47.8033 20.8129 47.3413 20.8736 46.8373 20.8736C46.1653 20.8736 45.5773 20.7569 45.0733 20.5236C44.5786 20.2903 44.1866 19.8703 43.8973 19.2636L44.7653 18.6476C44.9986 19.1143 45.2833 19.4363 45.6193 19.6136C45.9553 19.8003 46.3613 19.8936 46.8373 19.8936C47.164 19.8936 47.4626 19.8516 47.7333 19.7676C48.004 19.6929 48.2373 19.5716 48.4333 19.4036C48.6293 19.2356 48.7833 19.0163 48.8953 18.7456C49.0073 18.4843 49.0633 18.1623 49.0633 17.7796V16.5476C48.8393 16.9863 48.5266 17.3129 48.1253 17.5276C47.724 17.7329 47.2433 17.8356 46.6833 17.8356C45.7686 17.8356 45.0546 17.5416 44.5413 16.9536C44.0373 16.3656 43.7853 15.4929 43.7853 14.3356C43.7853 13.2063 44.0326 12.3476 44.5273 11.7596C45.022 11.1623 45.7453 10.8636 46.6973 10.8636C47.2573 10.8636 47.7426 10.9709 48.1533 11.1856C48.564 11.3909 48.8813 11.7083 49.1053 12.1376L49.2313 11.0316H50.2673ZM54.0792 8.04961V12.3476C54.3312 11.8156 54.6906 11.4376 55.1572 11.2136C55.6332 10.9803 56.1372 10.8636 56.6692 10.8636C57.5279 10.8636 58.1626 11.0923 58.5732 11.5496C58.9839 12.0069 59.1892 12.6883 59.1892 13.5936V17.8496H57.9852V13.9016C57.9852 13.1736 57.8359 12.6556 57.5372 12.3476C57.2479 12.0396 56.8372 11.8856 56.3052 11.8856C55.6332 11.8856 55.0966 12.1096 54.6952 12.5576C54.3032 12.9963 54.0979 13.6263 54.0792 14.4476V17.8496H52.8752V8.04961H54.0792Z" fill="#606060"/>
</svg>
