<svg width="63" height="25" viewBox="0 0 63 25" fill="none" xmlns="http://www.w3.org/2000/svg">
<path d="M0.494141 12.8496C0.494141 6.49835 5.64287 1.34962 11.9941 1.34962H50.9941C57.3454 1.34962 62.4941 6.49835 62.4941 12.8496C62.4941 19.2009 57.3454 24.3496 50.9941 24.3496H11.9941C5.64287 24.3496 0.494141 19.2009 0.494141 12.8496Z" fill="#F7F7F7"/>
<path d="M0.494141 12.8496C0.494141 6.49835 5.64287 1.34962 11.9941 1.34962H50.9941C57.3454 1.34962 62.4941 6.49835 62.4941 12.8496C62.4941 19.2009 57.3454 24.3496 50.9941 24.3496H11.9941C5.64287 24.3496 0.494141 19.2009 0.494141 12.8496Z" stroke="#E0E0E0"/>
<rect width="3" height="10" rx="1" transform="matrix(-1 0 0 1 10.9941 7.84962)" fill="#1792E5"/>
<rect width="3" height="10" rx="1" transform="matrix(-1 0 0 1 16.9941 7.84962)" fill="#D0D0D0"/>
<rect width="3" height="10" rx="1" transform="matrix(-1 0 0 1 22.9941 7.84962)" fill="#D0D0D0"/>
<path d="M29.7801 16.7856H35.4781V17.8496H28.5341V8.04962H29.7801V16.7856ZM36.6515 14.4196C36.6515 13.1876 36.9362 12.287 37.5055 11.7176C38.0842 11.1483 38.9008 10.8636 39.9555 10.8636C41.0662 10.8636 41.8922 11.1436 42.4335 11.7036C42.9842 12.2636 43.2595 13.169 43.2595 14.4196C43.2595 15.6516 42.9795 16.5616 42.4195 17.1496C41.8595 17.7283 41.0382 18.0176 39.9555 18.0176C38.8822 18.0176 38.0608 17.733 37.4915 17.1636C36.9315 16.5943 36.6515 15.6796 36.6515 14.4196ZM42.0555 14.4336C42.0555 13.9483 42.0135 13.5423 41.9295 13.2156C41.8455 12.8796 41.7148 12.609 41.5375 12.4036C41.3695 12.1983 41.1502 12.0536 40.8795 11.9696C40.6182 11.8763 40.3102 11.8296 39.9555 11.8296C39.5915 11.8296 39.2742 11.8763 39.0035 11.9696C38.7422 12.0536 38.5275 12.1983 38.3595 12.4036C38.1915 12.609 38.0655 12.8796 37.9815 13.2156C37.8975 13.5423 37.8555 13.9483 37.8555 14.4336C37.8555 15.395 38.0235 16.0716 38.3595 16.4636C38.7048 16.8556 39.2368 17.0516 39.9555 17.0516C40.6742 17.0516 41.2015 16.8556 41.5375 16.4636C41.8828 16.0716 42.0555 15.395 42.0555 14.4336ZM48.5926 11.0736H49.8386L51.4486 16.4916L53.0586 11.0316H54.2066L52.0366 17.8496H50.7626L49.1806 12.4316L47.6266 17.8496H46.3526L44.1546 11.0316H45.3586L46.9966 16.4776L48.5926 11.0736Z" fill="#606060"/>
</svg>
